<?xml version="1.0" encoding="UTF-8" standalone="no"?>
<!-- Created with Inkscape (http://www.inkscape.org/) -->

<svg
   xmlns:dc="http://purl.org/dc/elements/1.1/"
   xmlns:cc="http://creativecommons.org/ns#"
   xmlns:rdf="http://www.w3.org/1999/02/22-rdf-syntax-ns#"
   xmlns:svg="http://www.w3.org/2000/svg"
   xmlns="http://www.w3.org/2000/svg"
   xmlns:sodipodi="http://sodipodi.sourceforge.net/DTD/sodipodi-0.dtd"
   xmlns:inkscape="http://www.inkscape.org/namespaces/inkscape"
   width="85mm"
   height="54mm"
   id="svg3986"
   version="1.1"
   inkscape:version="0.48.4 r9939"
   sodipodi:docname="invitesack.svg">
  <defs
     id="defs3">
    <inkscape:perspective
       sodipodi:type="inkscape:persp3d"
       inkscape:vp_x="0 : 95.669289 : 1"
       inkscape:vp_y="0 : 1000 : 0"
       inkscape:vp_z="301.18109 : 95.669289 : 1"
       inkscape:persp3d-origin="150.59055 : 63.779526 : 1"
       id="perspective4027" />
  </defs>
  <sodipodi:namedview
     id="base"
     pagecolor="#ffffff"
     bordercolor="#666666"
     borderopacity="1.0"
     inkscape:pageopacity="0.0"
     inkscape:pageshadow="2"
     inkscape:zoom="2"
     inkscape:cx="84.5"
     inkscape:cy="163.33333"
     inkscape:document-units="mm"
     inkscape:current-layer="layer1"
     showgrid="false"
     inkscape:window-width="1333"
     inkscape:window-height="744"
     inkscape:window-x="33"
     inkscape:window-y="24"
     inkscape:window-maximized="1" />
  <metadata
     id="metadata3990">
    <rdf:RDF>
      <cc:Work
         rdf:about="">
        <dc:format>image/svg+xml</dc:format>
        <dc:type
           rdf:resource="http://purl.org/dc/dcmitype/StillImage" />
        <dc:title />
      </cc:Work>
    </rdf:RDF>
  </metadata>
  <g
     inkscape:label="Layer 1"
     inkscape:groupmode="layer"
     id="layer1">
    <path
       sodipodi:type="star"
       style="opacity:0.98999999000000005;fill:#32cd32;fill-opacity:0.59537569000000001"
       id="path4029"
       sodipodi:sides="9"
       sodipodi:cx="59"
       sodipodi:cy="79.338577"
       sodipodi:r1="28.004463"
       sodipodi:r2="26.315588"
       sodipodi:arg1="-0.017855245"
       sodipodi:arg2="0.33121061"
       inkscape:flatsided="false"
       inkscape:rounded="0"
       inkscape:randomized="1.525"
       d="M 87.804872,66.359502 119.50781,72.91044 104.24993,125.58807 76.712431,78.828633 65.674882,78.925038 81.216972,107.51276 45.193669,142.80339 62.213235,85.589935 38.195211,53.7807 27.830763,58.105638 54.426056,77.989837 69.972795,63.843248 50.264782,95.761258 29.746913,12.932886 31.272554,41.082523 32.125483,51.121618 84.633086,71.293938 70.893897,111.5709 z"
       inkscape:transform-center-x="-14.669285"
       inkscape:transform-center-y="-1.4704407"
       transform="translate(13,-5.5)" />
    <path
       sodipodi:type="star"
       style="opacity:0.98999999000000005;fill:#ff3300;fill-opacity:0.59537569000000001"
       id="path4031"
       sodipodi:sides="9"
       sodipodi:cx="166.5"
       sodipodi:cy="56.838577"
       sodipodi:r1="26.856098"
       sodipodi:r2="25.236477"
       sodipodi:arg1="1.0655061"
       sodipodi:arg2="1.414572"
       inkscape:flatsided="false"
       inkscape:rounded="0"
       inkscape:randomized="1.525"
       d="m 144.80569,88.056173 47.15483,-17.031639 -1.94621,-12.16207 -59.62923,-0.297024 8.7106,35.639522 26.81377,9.792248 -33.51067,-49.050545 -22.78802,-18.685541 73.59494,-23.197677 -44.63655,17.013608 22.0682,-6.146726 0.72601,43.259662 L 151.3001,52.25495 226.83144,7.9316278 169.65325,29.709646 l 35.92727,38.327563 6.53528,-34.442256 -16.75052,5.142786 z"
       inkscape:transform-center-x="-1.7210992"
       inkscape:transform-center-y="-0.87415608" />
    <path
       sodipodi:type="star"
       style="opacity:0.98999999000000005;fill:#ff0000;fill-opacity:0.20809248;stroke-width:35.43307087000000166;stroke-miterlimit:4;stroke-dasharray:none"
       id="path4033"
       sodipodi:sides="9"
       sodipodi:cx="167.5"
       sodipodi:cy="138.33858"
       sodipodi:r1="41.10961"
       sodipodi:r2="38.630397"
       sodipodi:arg1="-0.073040565"
       sodipodi:arg2="0.27602529"
       inkscape:flatsided="false"
       inkscape:rounded="0"
       inkscape:randomized="1.525"
       d="m 237.72181,145.22133 -90.17511,28.74665 85.30773,-72.24906 -39.2568,27.01421 44.95032,50.72416 -57.38768,-13.28266 -62.08231,-23.23206 1.74864,52.37732 -28.285653,-27.06467 4.242175,-7.55616 29.708848,-66.499305 59.15854,74.386195 -2.10854,-111.725365 -57.02208,99.313725 36.13618,-25.00022 -12.61071,4.74253 37.2064,25.41391 66.12856,-64.8364 z"
       inkscape:transform-center-x="-5.4606331"
       inkscape:transform-center-y="-12.248338" />
    <path
       style="opacity:0.98999999000000005;fill:#99ff66;fill-opacity:0.59537569000000001"
       d="m 148.58361,98.070247 c -4.65652,-1.724475 -8.77371,-3.33332 -9.14931,-3.57521 -0.5677,-0.365595 -9.09253,-33.565825 -9.1246,-35.53604 -0.005,-0.33824 0.85141,-0.662785 1.98026,-0.75 l 1.98995,-0.15375 -1.2542,-1.596901 c -0.68982,-0.878296 -6.07755,-5.556007 -11.97276,-10.394912 -10.48416,-8.605621 -11.58185,-9.595957 -11.1333,-10.044501 0.61464,-0.614645 67.88899,-21.487993 67.73488,-21.016241 -0.0993,0.303906 -6.62973,3.011226 -14.51214,6.016267 -7.88239,3.005042 -14.25241,5.542939 -14.15557,5.639773 0.0968,0.09683 2.69725,-0.527752 5.7787,-1.387968 3.08145,-0.860215 5.68292,-1.48374 5.78105,-1.385612 0.0981,0.09813 0.34095,5.070293 0.53959,11.049255 0.19865,5.978962 0.4213,10.87084 0.49477,10.87084 0.0735,0 3.43289,-1.945767 7.46538,-4.323928 l 7.33179,-4.323928 -3.63701,-3.661447 c -2.00036,-2.013795 -3.53668,-3.757706 -3.41405,-3.875358 0.17366,-0.166609 31.26792,-12.075688 53.84796,-20.6237268 1.71875,-0.6506605 3.125,-1.0034543 3.125,-0.7839862 0,0.2194682 -10.71882,6.686285 -23.81959,14.370704 -13.10078,7.684418 -24.10844,14.19667 -24.46146,14.47167 -0.48815,0.380257 0.42172,1.623465 3.79925,5.191123 l 4.44113,4.691124 4.48964,-4.22636 4.48964,-4.22636 8.37392,-2.579874 c 4.60565,-1.418932 8.45807,-2.495712 8.56094,-2.392846 0.27889,0.278893 -5.99842,33.191213 -6.46915,33.918143 -0.43443,0.670865 -1.51566,-0.37931 -12.98518,-12.612254 l -6.31685,-6.737305 -5.19822,4.987305 c -5.63314,5.404569 -5.68527,5.636964 -1.27907,5.702159 1.30625,0.01935 2.375,0.15685 2.375,0.305605 0,0.14875 -2.5112,4.64288 -5.58043,9.986945 l -5.58043,9.716485 -3.79457,1.43369 c -2.08702,0.788525 -5.99297,2.20065 -8.67989,3.138055 -2.68693,0.9374 -4.82443,1.929365 -4.75,2.204365 0.0744,0.275 1.70166,2.82619 3.61608,5.669305 l 3.48075,5.16931 -1.31993,2.33069 c -0.72596,1.281888 -1.6173,2.364538 -1.98076,2.405908 -0.36345,0.0413 -4.4707,-1.335733 -9.12721,-3.060213 l 0,0 z m 15.51678,-29.316075 10.05039,-9.948925 -6.48453,0 -6.48453,0 0.35402,4.25 c 0.21402,2.569235 0.16822,4.25 -0.1158,4.25 -0.25841,0 -1.74258,-1.9125 -3.29815,-4.25 l -2.82832,-4.25 -9.74674,0 c -5.3607,0 -9.74673,0.131265 -9.74673,0.291705 0,0.276665 6.50238,9.91444 12.37561,18.343005 l 2.70695,3.88471 1.58372,-1.310785 c 0.87105,-0.72093 6.1064,-5.7878 11.63411,-11.25971 l 0,0 z"
       id="path3076"
       inkscape:connector-curvature="0" />
  </g>
</svg>
