<?xml version="1.0" encoding="UTF-8" standalone="no"?>
<!-- Created with Inkscape (http://www.inkscape.org/) -->

<svg
   xmlns:dc="http://purl.org/dc/elements/1.1/"
   xmlns:cc="http://creativecommons.org/ns#"
   xmlns:rdf="http://www.w3.org/1999/02/22-rdf-syntax-ns#"
   xmlns:svg="http://www.w3.org/2000/svg"
   xmlns="http://www.w3.org/2000/svg"
   xmlns:sodipodi="http://sodipodi.sourceforge.net/DTD/sodipodi-0.dtd"
   xmlns:inkscape="http://www.inkscape.org/namespaces/inkscape"
   width="85mm"
   height="54mm"
   id="svg3986"
   version="1.1"
   inkscape:version="0.48.4 r9939"
   sodipodi:docname="invitesack.svg">
  <defs
     id="defs3">
    <inkscape:perspective
       sodipodi:type="inkscape:persp3d"
       inkscape:vp_x="0 : 95.669289 : 1"
       inkscape:vp_y="0 : 1000 : 0"
       inkscape:vp_z="301.18109 : 95.669289 : 1"
       inkscape:persp3d-origin="150.59055 : 63.779526 : 1"
       id="perspective4027" />
  </defs>
  <sodipodi:namedview
     id="base"
     pagecolor="#ffffff"
     bordercolor="#666666"
     borderopacity="1.0"
     inkscape:pageopacity="0.0"
     inkscape:pageshadow="2"
     inkscape:zoom="2"
     inkscape:cx="160"
     inkscape:cy="123.33333"
     inkscape:document-units="mm"
     inkscape:current-layer="layer1"
     showgrid="false"
     inkscape:window-width="1333"
     inkscape:window-height="744"
     inkscape:window-x="33"
     inkscape:window-y="24"
     inkscape:window-maximized="1" />
  <metadata
     id="metadata3990">
    <rdf:RDF>
      <cc:Work
         rdf:about="">
        <dc:format>image/svg+xml</dc:format>
        <dc:type
           rdf:resource="http://purl.org/dc/dcmitype/StillImage" />
        <dc:title />
      </cc:Work>
    </rdf:RDF>
  </metadata>
  <g
     inkscape:label="Layer 1"
     inkscape:groupmode="layer"
     id="layer1">
    <path
       sodipodi:type="star"
       style="opacity:0.98999999000000005;fill:#dc0000;fill-opacity:0.59537569000000001"
       id="path4029"
       sodipodi:sides="9"
       sodipodi:cx="59"
       sodipodi:cy="79.338577"
       sodipodi:r1="28.004464"
       sodipodi:r2="26.315588"
       sodipodi:arg1="-0.017855245"
       sodipodi:arg2="0.33121061"
       inkscape:flatsided="false"
       inkscape:rounded="0"
       inkscape:randomized="1.525"
       d="M 87.804872,66.359502 119.50781,72.91044 104.24993,125.58807 76.712431,78.828633 65.674882,78.925038 81.216972,107.51276 45.193669,142.80339 62.213235,85.589935 38.195211,53.7807 27.830763,58.105638 54.426056,77.989837 69.972795,63.843248 50.264782,95.761258 29.746913,12.932886 31.272554,41.082523 32.125483,51.121618 84.633086,71.293938 70.893897,111.5709 z"
       inkscape:transform-center-x="-14.669285"
       inkscape:transform-center-y="-1.4704407" />
    <path
       sodipodi:type="star"
       style="opacity:0.98999999000000005;fill:#ff3300;fill-opacity:0.59537569000000001"
       id="path4031"
       sodipodi:sides="9"
       sodipodi:cx="166.5"
       sodipodi:cy="56.838577"
       sodipodi:r1="26.856098"
       sodipodi:r2="25.236477"
       sodipodi:arg1="1.0655061"
       sodipodi:arg2="1.414572"
       inkscape:flatsided="false"
       inkscape:rounded="0"
       inkscape:randomized="1.525"
       d="m 144.80569,88.056173 47.15483,-17.031639 -1.94621,-12.16207 -59.62923,-0.297024 8.7106,35.639522 26.81377,9.792248 -33.51067,-49.050545 -22.78802,-18.685541 73.59494,-23.197677 -44.63655,17.013608 22.0682,-6.146726 0.72601,43.259662 L 151.3001,52.25495 226.83144,7.9316278 169.65325,29.709646 l 35.92727,38.327563 6.53528,-34.442256 -16.75052,5.142786 z"
       inkscape:transform-center-x="-1.7210992"
       inkscape:transform-center-y="-0.87415608" />
    <path
       sodipodi:type="star"
       style="opacity:0.98999999000000005;fill:#666699;fill-opacity:0.59537569000000001"
       id="path4033"
       sodipodi:sides="9"
       sodipodi:cx="167.5"
       sodipodi:cy="138.33858"
       sodipodi:r1="41.10961"
       sodipodi:r2="38.630397"
       sodipodi:arg1="-0.073040565"
       sodipodi:arg2="0.27602529"
       inkscape:flatsided="false"
       inkscape:rounded="0"
       inkscape:randomized="1.525"
       d="m 237.72181,145.22133 -90.17511,28.74665 85.30773,-72.24906 -39.2568,27.01421 44.95032,50.72416 -57.38768,-13.28266 -62.08231,-23.23206 1.74864,52.37732 -28.285653,-27.06467 4.242175,-7.55616 29.708848,-66.499305 59.15854,74.386195 -2.10854,-111.725365 -57.02208,99.313725 36.13618,-25.00022 -12.61071,4.74253 37.2064,25.41391 66.12856,-64.8364 z"
       inkscape:transform-center-x="-5.4606331"
       inkscape:transform-center-y="-12.248338" />
    <path
       style="opacity:0.98999999;fill:#005c94;fill-opacity:0.59537569"
       d="m 103.09667,124.18025 c -0.39951,-0.61875 -5.486913,-9.225 -11.305344,-19.125 -5.818431,-9.900003 -10.674071,-18.096078 -10.790312,-18.213502 -0.11624,-0.117425 -0.528125,0.219721 -0.9153,0.749214 -0.387174,0.529492 -0.857274,0.809392 -1.044666,0.622 -0.489332,-0.489332 0.749684,-3.972459 1.29352,-3.63635 0.249688,0.154315 0.305819,-0.105523 0.124735,-0.577418 -0.236092,-0.615248 -0.148587,-0.746341 0.309295,-0.463355 0.478437,0.295691 0.548992,0.112511 0.281402,-0.730592 -0.259402,-0.817303 -0.190988,-1.022545 0.25,-0.75 0.440988,0.272546 0.509402,0.0673 0.25,-0.75 -0.259402,-0.817303 -0.190988,-1.022545 0.25,-0.75 0.440988,0.272546 0.509402,0.0673 0.25,-0.75 -0.21841,-0.688147 -0.16789,-1.00827 0.130057,-0.824128 0.270304,0.167056 1.549831,-2.587446 2.874179,-6.187386 2.042262,-5.551429 2.53926,-6.484422 3.441375,-6.460346 0.579914,0.01548 7.804389,1.444265 16.054389,3.175084 11.50236,2.413152 14.98761,3.316492 14.94685,3.874074 -0.12262,1.67772 -14.89725,51.922705 -15.26796,51.922705 -0.22321,0 -0.73271,-0.50625 -1.13222,-1.125 z"
       id="path3022"
       inkscape:connector-curvature="0" />
    <path
       style="opacity:0.98999999000000005;fill:#19aeff;fill-opacity:0.59537569000000001"
       d="m 45.527916,140.93025 c 0.184978,-0.75625 3.935404,-13.48602 8.334279,-28.28838 l 7.997956,-26.913368 -1.305521,-1.71163 c -0.718037,-0.941395 -1.377189,-1.711625 -1.464782,-1.711625 -0.08759,0 -2.026281,3.0375 -4.308197,6.75 -2.281915,3.7125 -4.284516,6.75 -4.450225,6.75 -0.165708,0 -1.726789,-5.730585 -3.469068,-12.73463 L 43.694577,70.335982 35.768116,64.445616 c -4.359553,-3.239703 -7.871073,-6.08465 -7.803377,-6.322104 0.0677,-0.237454 2.308452,-1.35198 4.979456,-2.476724 l 4.856371,-2.044989 -2.875283,-1.071055 C 32.05039,51.459834 32.049957,51.459356 31.733735,49.007468 31.150219,44.483054 29.671025,16.767556 29.99574,16.44284 c 0.17651,-0.176509 0.504945,-0.110926 0.729857,0.145741 0.224911,0.256666 2.383453,8.566666 4.796759,18.466666 2.413306,9.9 4.644288,18.267652 4.957737,18.594781 0.822117,0.858 27.884652,11.174221 28.429679,10.837376 0.251219,-0.155262 0.723042,0.03958 1.048495,0.432982 0.325453,0.393401 3.741733,1.912956 7.591733,3.376791 3.85,1.463835 7.126715,2.853515 7.281595,3.08817 0.154875,0.234655 0.79514,-0.81237 1.422805,-2.326725 0.973225,-2.348085 1.33428,-2.753375 2.45285,-2.753375 3.173245,0 30.69724,6.063485 30.94873,6.817945 0.40456,1.213675 -14.90604,52.738548 -15.60598,52.518928 -0.275,-0.0863 -5.60304,-8.76344 -11.840085,-19.28257 L 80.86983,87.233857 80.02741,88.519552 c -0.46333,0.70713 -1.05174,1.285695 -1.30757,1.285695 -0.487825,0 -0.07068,-3.1881 0.588805,-4.5 0.235065,-0.467615 -0.184405,-1.738355 -1.114075,-3.375 l -1.491092,-2.625 -5.246932,0 -5.246933,0 1.97727,3.625 c 1.087498,1.99375 3.16277,5.8002 4.611715,8.45878 1.951024,3.579815 2.832601,4.75774 3.398293,4.540665 0.595012,-0.228325 0.696563,-0.0358 0.459436,0.87096 -0.219153,0.83804 0.393558,2.42925 2.187628,5.681258 1.37062,2.48445 2.42769,4.77729 2.34904,5.09521 -0.192165,0.77679 -34.925199,34.72813 -35.527706,34.72813 -0.264961,0 -0.325495,-0.6059 -0.137373,-1.375 z M 54.8,76.767262 c 0,-0.427785 -11.434735,-15.926446 -13.020715,-17.648301 -0.221022,-0.239958 0.235759,2.083831 1.01507,5.163974 0.77931,3.080142 1.516353,5.699687 1.637874,5.821207 0.861344,0.861345 9.625097,7.201105 9.95443,7.201105 0.227337,0 0.413341,-0.24209 0.413341,-0.537985 z"
       id="path3024"
       inkscape:connector-curvature="0" />
    <path
       style="opacity:0.98999999;fill:#19aeff;fill-opacity:0.59537569"
       d="m 45.3,141.49472 c 0,-0.44579 3.6,-12.99771 8,-27.89315 4.4,-14.895443 8,-27.325363 8,-27.622043 0,-0.29668 -0.47263,-1.140275 -1.050289,-1.874645 l -1.050289,-1.33523 -4.250462,6.5178 c -2.337754,3.584785 -4.408659,6.517795 -4.60201,6.517795 -0.324628,0 -3.8456,-12.805225 -5.897341,-21.44771 l -0.877843,-3.69771 -6.760883,-5.1511 c -9.230206,-7.032474 -9.19447,-7.001921 -8.8472,-7.563816 0.169127,-0.273653 2.242583,-1.359791 4.60768,-2.413639 l 4.300176,-1.916087 -2.020965,-0.790164 c -1.111531,-0.434591 -2.293536,-1.062736 -2.626678,-1.395878 -0.648276,-0.648276 -1.603,-12.178759 -2.220364,-26.815985 -0.297325,-7.049373 -0.242789,-8.40433 0.330578,-8.213207 0.436202,0.1454 2.346668,6.59831 5.237969,17.692089 2.503229,9.604764 4.702998,17.919917 4.888376,18.478118 0.185377,0.5582 0.956362,1.269457 1.713298,1.580569 5.754208,2.365069 15.143906,5.996081 20.487782,7.922661 3.513656,1.266747 9.795628,3.749629 13.959938,5.517519 4.164312,1.767885 7.775727,3.21434 8.025367,3.21434 0.24964,0 0.961155,-1.04409 1.581135,-2.320205 l 1.127245,-2.320205 3.34739,0.28313 c 3.359155,0.28412 21.51449,4.13724 26.52165,5.628705 l 2.67427,0.796575 -0.33345,1.841 c -1.08989,6.01736 -14.19983,49.656233 -15.24762,50.754523 -0.56717,0.5945 -1.4535,-0.77309 -12.820265,-19.78148 -5.634605,-9.422628 -10.45892,-17.207003 -10.7207,-17.298623 -0.261785,-0.09162 -0.61266,0.189635 -0.779725,0.625 -0.16707,0.43537 -0.62345,0.79158 -1.01419,0.79158 -0.56879,0 -0.65312,-0.623045 -0.42298,-3.125 0.24668,-2.681795 0.122495,-3.40865 -0.875645,-5.125 l -1.163092,-2 -4.908326,-0.143685 c -2.961305,-0.08669 -4.839743,0.04535 -4.735432,0.332875 0.603358,1.66307 7.876177,14.382565 8.797895,15.386715 0.61875,0.67409 1.125,1.511605 1.125,1.861145 0,0.34954 1.0125,2.715825 2.25,5.258403 1.2375,2.54258 2.25,4.89063 2.25,5.21788 0,1.02034 -34.478978,34.83667 -35.519314,34.83667 -0.264377,0 -0.480686,-0.36474 -0.480686,-0.81053 z m 7.43571,-67.064473 c -2.228712,-3.282945 -10.013922,-13.625 -10.256519,-13.625 -0.251868,0 0.177322,1.90469 1.328202,5.894385 0.613003,2.125065 1.351649,3.502795 2.278563,4.25 1.558404,1.256265 7.886439,5.809155 8.113064,5.837185 0.08196,0.01015 -0.576528,-1.05032 -1.46331,-2.35657 z"
       id="path3026"
       inkscape:connector-curvature="0" />
    <path
       style="opacity:0.98999999000000005;fill:#99ff66;fill-opacity:0.59537569000000001"
       d="m 148.58361,98.070247 c -4.65652,-1.724475 -8.77371,-3.33332 -9.14931,-3.57521 -0.5677,-0.365595 -9.09253,-33.565825 -9.1246,-35.53604 -0.005,-0.33824 0.85141,-0.662785 1.98026,-0.75 l 1.98995,-0.15375 -1.2542,-1.596901 c -0.68982,-0.878296 -6.07755,-5.556007 -11.97276,-10.394912 -10.48416,-8.605621 -11.58185,-9.595957 -11.1333,-10.044501 0.61464,-0.614645 67.88899,-21.487993 67.73488,-21.016241 -0.0993,0.303906 -6.62973,3.011226 -14.51214,6.016267 -7.88239,3.005042 -14.25241,5.542939 -14.15557,5.639773 0.0968,0.09683 2.69725,-0.527752 5.7787,-1.387968 3.08145,-0.860215 5.68292,-1.48374 5.78105,-1.385612 0.0981,0.09813 0.34095,5.070293 0.53959,11.049255 0.19865,5.978962 0.4213,10.87084 0.49477,10.87084 0.0735,0 3.43289,-1.945767 7.46538,-4.323928 l 7.33179,-4.323928 -3.63701,-3.661447 c -2.00036,-2.013795 -3.53668,-3.757706 -3.41405,-3.875358 0.17366,-0.166609 31.26792,-12.075688 53.84796,-20.6237268 1.71875,-0.6506605 3.125,-1.0034543 3.125,-0.7839862 0,0.2194682 -10.71882,6.686285 -23.81959,14.370704 -13.10078,7.684418 -24.10844,14.19667 -24.46146,14.47167 -0.48815,0.380257 0.42172,1.623465 3.79925,5.191123 l 4.44113,4.691124 4.48964,-4.22636 4.48964,-4.22636 8.37392,-2.579874 c 4.60565,-1.418932 8.45807,-2.495712 8.56094,-2.392846 0.27889,0.278893 -5.99842,33.191213 -6.46915,33.918143 -0.43443,0.670865 -1.51566,-0.37931 -12.98518,-12.612254 l -6.31685,-6.737305 -5.19822,4.987305 c -5.63314,5.404569 -5.68527,5.636964 -1.27907,5.702159 1.30625,0.01935 2.375,0.15685 2.375,0.305605 0,0.14875 -2.5112,4.64288 -5.58043,9.986945 l -5.58043,9.716485 -3.79457,1.43369 c -2.08702,0.788525 -5.99297,2.20065 -8.67989,3.138055 -2.68693,0.9374 -4.82443,1.929365 -4.75,2.204365 0.0744,0.275 1.70166,2.82619 3.61608,5.669305 l 3.48075,5.16931 -1.31993,2.33069 c -0.72596,1.281888 -1.6173,2.364538 -1.98076,2.405908 -0.36345,0.0413 -4.4707,-1.335733 -9.12721,-3.060213 l 0,0 z m 15.51678,-29.316075 10.05039,-9.948925 -6.48453,0 -6.48453,0 0.35402,4.25 c 0.21402,2.569235 0.16822,4.25 -0.1158,4.25 -0.25841,0 -1.74258,-1.9125 -3.29815,-4.25 l -2.82832,-4.25 -9.74674,0 c -5.3607,0 -9.74673,0.131265 -9.74673,0.291705 0,0.276665 6.50238,9.91444 12.37561,18.343005 l 2.70695,3.88471 1.58372,-1.310785 c 0.87105,-0.72093 6.1064,-5.7878 11.63411,-11.25971 l 0,0 z"
       id="path3076"
       inkscape:connector-curvature="0" />
  </g>
</svg>
