<?xml version="1.0" encoding="UTF-8" standalone="no"?>
<!-- Created with Inkscape (http://www.inkscape.org/) -->

<svg
   xmlns:dc="http://purl.org/dc/elements/1.1/"
   xmlns:cc="http://creativecommons.org/ns#"
   xmlns:rdf="http://www.w3.org/1999/02/22-rdf-syntax-ns#"
   xmlns:svg="http://www.w3.org/2000/svg"
   xmlns="http://www.w3.org/2000/svg"
   xmlns:sodipodi="http://sodipodi.sourceforge.net/DTD/sodipodi-0.dtd"
   xmlns:inkscape="http://www.inkscape.org/namespaces/inkscape"
   width="64px"
   height="64px"
   id="svg5309"
   version="1.1"
   inkscape:version="0.48.4 r9939"
   sodipodi:docname="New document 7">
  <defs
     id="defs5311" />
  <sodipodi:namedview
     id="base"
     pagecolor="#ffffff"
     bordercolor="#666666"
     borderopacity="1.0"
     inkscape:pageopacity="0.0"
     inkscape:pageshadow="2"
     inkscape:zoom="5.5"
     inkscape:cx="32"
     inkscape:cy="32"
     inkscape:current-layer="layer1"
     showgrid="true"
     inkscape:document-units="px"
     inkscape:grid-bbox="true"
     inkscape:window-width="1333"
     inkscape:window-height="744"
     inkscape:window-x="33"
     inkscape:window-y="24"
     inkscape:window-maximized="1" />
  <metadata
     id="metadata5314">
    <rdf:RDF>
      <cc:Work
         rdf:about="">
        <dc:format>image/svg+xml</dc:format>
        <dc:type
           rdf:resource="http://purl.org/dc/dcmitype/StillImage" />
        <dc:title></dc:title>
      </cc:Work>
    </rdf:RDF>
  </metadata>
  <g
     id="layer1"
     inkscape:label="Layer 1"
     inkscape:groupmode="layer">
    <path
       sodipodi:type="star"
       style="opacity:0.98999999000000005;fill:#ff3300;fill-opacity:0.59537569000000001"
       id="path3038"
       sodipodi:sides="9"
       sodipodi:cx="4.0544553"
       sodipodi:cy="5.5935645"
       sodipodi:r1="2.4497156"
       sodipodi:r2="3.9902909"
       sodipodi:arg1="1.0082984"
       sodipodi:arg2="1.3573643"
       inkscape:flatsided="false"
       inkscape:rounded="0"
       inkscape:randomized="1.525"
       d="M 0.99154542,10.436221 1.6382643,9.8538674 7.127706,9.1813526 7.4900077,7.6397462 3.803569,1.9088107 5.1002334,1.5210933 6.8463956,2.820896 -4.8242683,1.1410962 -0.29932795,3.9740196 1.1584028,6.0910429 -0.99533774,7.4117425 5.5231769,3.4148894 3.169764,8.7554178 8.7146577,4.4450868 3.5230341,1.8921971 13.873389,1.3167801 8.1992781,11.344418 13.210583,9.1760029 z"
       inkscape:transform-center-x="3.5943263"
       inkscape:transform-center-y="-0.78525041"
       transform="matrix(3.3837947,0,0,5.9453107,16.235271,-6.3878571)" />
    <rect
       style="opacity:0.98999999;fill:#f02929;fill-opacity:0.93063582"
       id="rect3052"
       width="21.298864"
       height="20.914623"
       x="22.063292"
       y="16.478378"
       ry="10.457312" />
    <path
       sodipodi:type="star"
       style="opacity:0.98999999;fill:#ff3300;fill-opacity:0.59537569"
       id="path5328"
       sodipodi:sides="9"
       sodipodi:cx="15.818182"
       sodipodi:cy="40.909091"
       sodipodi:r1="4.4387475"
       sodipodi:r2="2.7250317"
       sodipodi:arg1="0.96007036"
       sodipodi:arg2="1.3091362"
       inkscape:flatsided="false"
       inkscape:rounded="0"
       inkscape:randomized="1.525"
       d="m 24.553634,45.790585 -14.373648,-6.135933 2.479695,3.147559 6.648361,-2.514261 -3.939931,2.368924 4.622022,2.672383 -9.375442,-10.312503 6.58708,6.767353 -10.0358044,-9.644911 6.3115094,3.702234 -4.8663815,0.582702 3.9391055,-0.721998 1.14748,5.839985 -0.386185,3.429027 10.306052,-11.90611 -4.786682,11.287785 1.376674,4.030046 2.213175,-11.792821 z"
       inkscape:transform-center-x="-0.041618427"
       inkscape:transform-center-y="-0.6480605" />
    <path
       sodipodi:type="star"
       style="opacity:0.98999999;fill:#ff3300;fill-opacity:0.59537569"
       id="path5330"
       sodipodi:sides="9"
       sodipodi:cx="7.4545455"
       sodipodi:cy="22"
       sodipodi:r1="3.4973426"
       sodipodi:r2="2.1470853"
       sodipodi:arg1="1.7273982"
       sodipodi:arg2="2.0764641"
       inkscape:flatsided="false"
       inkscape:rounded="0"
       inkscape:randomized="1.525"
       d="m 8.7313193,26.253414 -4.798574,1.261285 3.8174092,-5.100214 -2.6352686,3.370818 1.2267058,1.269234 -1.8956783,-4.209102 5.4183012,-8.129707 0.03305,3.727879 L 5.0796618,18.95601 2.5333712,16.931106 12.709455,14.990025 13.548727,23.663141 12.987675,19.400948 6.5002806,19.23374 13.365012,27.546816 12.106989,28.219087 7.1439535,28.053839 2.9216734,24.52841 z"
       inkscape:transform-center-x="-0.58650373"
       inkscape:transform-center-y="-0.53259245" />
    <path
       style="opacity:0.98999999000000005;fill:#ff3300;fill-opacity:0.59537569000000001"
       d="m 43.937453,60.901271 c 0.0056,-0.0857 0.726523,-2.364907 1.602056,-5.064907 0.875531,-2.7 1.533771,-4.933606 1.462756,-4.963566 -0.07101,-0.02996 -6.24708,1.053535 -13.724589,2.407769 -7.477509,1.354235 -13.633947,2.423768 -13.680974,2.37674 -0.04703,-0.04703 0.39036,-0.844158 0.971971,-1.771405 0.581611,-0.927246 1.068952,-1.704627 1.082983,-1.727515 0.01404,-0.02289 4.17886,-0.935874 9.255179,-2.028858 5.076316,-1.092984 9.259829,-2.017404 9.296692,-2.054267 0.03686,-0.03686 0.340413,-2.083011 0.674557,-4.546993 L 41.485616,39.048302 40.7906,37.169605 c -0.38226,-1.033283 -0.733056,-1.9881 -0.779547,-2.121816 -0.0617,-0.177467 -0.23904,-0.113107 -0.656704,0.238333 -1.22806,1.033345 -3.399353,1.910354 -5.151567,2.080774 l -1.088129,0.105831 -2.870098,3.909091 c -1.578555,2.15 -2.95026,3.936364 -3.048235,3.969697 -0.277158,0.09429 -0.241898,-0.09122 0.829155,-4.362417 0.55401,-2.209314 0.983556,-4.030969 0.954545,-4.04812 -0.02901,-0.01714 -0.625475,-0.313418 -1.325475,-0.658371 -1.584309,-0.780731 -3.582112,-2.7202 -4.392689,-4.264425 -0.647145,-1.232871 -1.152765,-2.808864 -1.152765,-3.593107 0,-0.517233 -0.01753,-0.507922 -0.935987,0.497012 -0.514793,0.563266 -0.999039,0.958497 -1.076102,0.878289 -0.07706,-0.08021 -1.225266,-2.926223 -2.551564,-6.324481 L 15.133986,17.297242 7.5306295,8.94745 C 3.3487833,4.355064 -0.07272727,0.52312555 -0.07272727,0.43203098 c 0,-0.0910946 0.14318182,-0.12192047 0.31818182,-0.068502 0.175,0.0534185 6.82272725,1.73944524 14.77272745,3.74672634 7.95,2.0072809 14.598847,3.6931391 14.775214,3.7463514 0.297704,0.089821 0.2945,0.030355 -0.04475,-0.8303154 -0.20164,-0.5115664 -0.650678,-1.1775297 -1.001898,-1.4859042 -0.72652,-0.6378933 -0.686168,-0.8841482 0.145796,-0.8897438 0.345462,-0.00232 1.345996,-0.4068826 2.473151,-1 1.041135,-0.5478538 1.991371,-0.9960978 2.111636,-0.9960978 0.120266,0 0.445464,0.3272727 0.722664,0.7272727 0.2772,0.4 0.550553,0.7272727 0.607449,0.7272727 0.0569,0 6.434926,-0.6199365 14.173395,-1.3776369 7.738469,-0.7577004 14.114991,-1.3325899 14.170047,-1.2775325 0.05506,0.055057 -3.434342,11.0747495 -7.75422,24.4882035 -4.319878,13.413455 -7.822875,24.41955 -7.784436,24.457988 0.03844,0.03844 3.000409,-0.464226 6.582156,-1.117033 3.581747,-0.652805 6.592378,-1.160218 6.690289,-1.12758 0.172764,0.05759 -16.213264,12.616033 -16.70976,12.806556 -0.136205,0.05227 -0.243065,0.02491 -0.237467,-0.06078 l 0,0 z M 44.1669,21.971729 c 0.651904,-0.875549 1.212404,-1.680391 1.245555,-1.788534 0.03315,-0.108146 -2.874715,-2.734587 -6.461922,-5.836535 -5.916809,-5.1164158 -6.60704,-5.6594916 -7.436311,-5.8509104 -0.502766,-0.1160521 -0.942826,-0.1822974 -0.977911,-0.147212 -0.06213,0.062126 2.459216,7.0444184 2.601658,7.2047094 0.03936,0.04428 0.428998,-0.323897 0.865875,-0.818182 0.436874,-0.494286 0.839269,-0.855528 0.894209,-0.802761 0.05494,0.05277 -0.02907,0.60789 -0.186689,1.233605 -0.157619,0.625715 -0.247268,1.176976 -0.19922,1.225022 0.04805,0.04805 0.562654,0.211158 1.143571,0.362467 2.784587,0.725293 5.37934,2.839275 6.59245,5.370964 0.37351,0.779491 0.691335,1.422211 0.70628,1.428265 0.01495,0.0061 0.56055,-0.705349 1.212455,-1.580898 l 0,0 z"
       id="path5332"
       inkscape:connector-curvature="0" />
    <path
       sodipodi:type="arc"
       style="opacity:0.98999999000000005;fill:#990000;fill-opacity:0.59537569000000001"
       id="path5338"
       sodipodi:cx="35.636364"
       sodipodi:cy="26.818182"
       sodipodi:rx="7.272727"
       sodipodi:ry="7.909091"
       d="m 42.909091,26.818182 a 7.272727,7.909091 0 1 1 -14.545454,0 7.272727,7.909091 0 1 1 14.545454,0 z"
       transform="translate(-2.5454545,0)" />
  </g>
</svg>
